<svg xmlns="http://www.w3.org/2000/svg" viewBox="0 0 160 64" role="img" aria-label="PWE Studio">
  <!-- horizontal lockup, light surfaces -->
  <g transform="translate(-3.5 6.5) scale(0.84)">
    <!-- Feather Star: growth, ascent and possibility from one creative origin -->
    <path fill="#0E1729" d="M 13.95 49.7 C 23.75 38.85 37.05 23.45 54.2 6.3 C 47.9 20.3 37.75 34.65 22.35 46.55 C 19.2 49 16.4 50.4 13.95 49.7 Z"/>
    <path fill="#0E1729" d="M 15.35 52.15 C 25.15 47.6 34.6 39.2 44.75 27.3 C 39.5 39.2 30.4 48.65 19.55 53.2 C 17.8 53.9 16.05 53.55 15.35 52.15 Z"/>
    <path fill="#F5B335" d="M 16.4 53.9 C 23.4 52.15 30.05 48.3 36.7 41.65 C 31.8 49.7 25.5 54.6 17.8 55.65 C 16.4 56 15.35 54.95 16.4 53.9 Z"/>
    <path fill="#F5B335" d="M 14.3 44.8 Q 14.3 51.1 20.6 51.1 Q 14.3 51.1 14.3 57.4 Q 14.3 51.1 8 51.1 Q 14.3 51.1 14.3 44.8 Z"/>
  </g>
  <!-- "PWE" wordmark, monoline geometric letterforms -->
  <path d="M 52 9.2 L 52 40 M 52 9.2 L 59.7 9.2 M 59.7 9.2 A 7.98 7.98 0 0 1 59.7 25.15 M 59.7 25.15 L 52 25.15 M 77.58 9.2 L 83.35 40 M 83.35 40 L 89.12 18 M 89.12 18 L 94.9 40 M 94.9 40 L 100.68 9.2 M 111.68 9.2 L 111.68 40 M 111.68 9.2 L 124.88 9.2 M 111.68 24.6 L 122.68 24.6 M 111.68 40 L 124.88 40" stroke="#0E1729" stroke-width="6.05" stroke-linecap="round" fill="none"/>
  <!-- "STUDIO" wordmark, monoline geometric letterforms -->
  <path d="M 58.69 46.27 A 3.22 3.22 0 1 0 56.22 51.56 M 56.22 51.56 A 3.22 3.22 0 1 1 53.75 56.85 M 62.66 45.12 L 69.1 45.12 M 65.88 45.12 L 65.88 58 M 72.32 45.12 L 72.32 54.78 M 72.32 54.78 A 3.22 3.22 0 0 0 78.76 54.78 M 78.76 54.78 L 78.76 45.12 M 81.98 45.12 L 81.98 58 M 81.98 45.12 A 6.44 6.44 0 0 1 81.98 58 M 91.64 45.12 L 91.64 58" stroke="#0E1729" stroke-width="2.53" stroke-linecap="round" fill="none"/>
  <circle cx="100.38" cy="51.56" r="5.52" stroke="#0E1729" stroke-width="2.53" fill="none"/>
</svg>
