<svg xmlns="http://www.w3.org/2000/svg" viewBox="0 0 64 64" role="img" aria-label="PWE Studio mark">
  <!-- light surfaces: Studio Navy + Spark Amber -->
  <!-- Feather Star: growth, ascent and possibility from one creative origin -->
  <path fill="#0E1729" d="M 13.95 49.7 C 23.75 38.85 37.05 23.45 54.2 6.3 C 47.9 20.3 37.75 34.65 22.35 46.55 C 19.2 49 16.4 50.4 13.95 49.7 Z"/>
  <path fill="#0E1729" d="M 15.35 52.15 C 25.15 47.6 34.6 39.2 44.75 27.3 C 39.5 39.2 30.4 48.65 19.55 53.2 C 17.8 53.9 16.05 53.55 15.35 52.15 Z"/>
  <path fill="#F5B335" d="M 16.4 53.9 C 23.4 52.15 30.05 48.3 36.7 41.65 C 31.8 49.7 25.5 54.6 17.8 55.65 C 16.4 56 15.35 54.95 16.4 53.9 Z"/>
  <path fill="#F5B335" d="M 14.3 44.8 Q 14.3 51.1 20.6 51.1 Q 14.3 51.1 14.3 57.4 Q 14.3 51.1 8 51.1 Q 14.3 51.1 14.3 44.8 Z"/>
</svg>
